<svg width="36" height="38" viewBox="0 0 36 38" fill="none" xmlns="http://www.w3.org/2000/svg">
<g clip-path="url(#clip0)">
<g filter="url(#filter0_d)">
<path d="M15.4038 21.0013H10.6222C10.3393 21.0013 10.0027 20.9748 9.64999 20.9279L7.54139 23.7436C7.35265 23.9957 6.97149 24.0697 6.69949 23.8963L6.78382 23.9501C6.51859 23.781 6.31723 23.3747 6.3492 23.0521L6.6464 20.053C5.90624 19.7103 5 19.1552 5 18.492C5 17.829 5.90553 17.2775 6.64553 16.9376L6.3492 13.9473C6.31723 13.6247 6.51859 13.2183 6.78382 13.0493L6.69949 13.103C6.97149 12.9297 7.35265 13.0037 7.54139 13.2557L9.65156 16.0736C10.0047 16.0256 10.3408 15.9981 10.6222 15.9981H15.354L14.8328 5.52671C14.8168 5.20563 14.9752 4.74283 15.189 4.49025L15.2269 4.4455C15.4396 4.19415 15.8764 3.99473 16.2038 4.00011L16.7121 4.00845C17.0389 4.01382 17.4222 4.25455 17.5667 4.5431L23.3028 15.9981L27.5923 15.9981C28.405 15.9981 29.658 16.2937 30.3602 16.6966C30.3602 16.6966 32 17.3179 32 18.5004C32 19.6829 30.3602 20.3034 30.3602 20.3034C29.6442 20.6888 28.398 21.0013 27.5923 21.0013H23.8038L17.5667 33.4569C17.4222 33.7454 17.0389 33.9862 16.7121 33.9915L16.2038 33.9999C15.8764 34.0053 15.4396 33.8059 15.2269 33.5545L15.189 33.5098C14.9752 33.2572 14.8168 32.7944 14.8328 32.4733L15.4038 21.0013Z" fill="white"/>
</g>
<mask id="mask0" mask-type="alpha" maskUnits="userSpaceOnUse" x="5" y="4" width="27" height="30">
<path d="M15.4038 21.0013H10.6222C10.3393 21.0013 10.0027 20.9748 9.64999 20.9279L7.54139 23.7436C7.35265 23.9957 6.97149 24.0697 6.69949 23.8963L6.78382 23.9501C6.51859 23.781 6.31723 23.3747 6.3492 23.0521L6.6464 20.053C5.90624 19.7103 5 19.1552 5 18.492C5 17.829 5.90553 17.2775 6.64553 16.9376L6.3492 13.9473C6.31723 13.6247 6.51859 13.2183 6.78382 13.0493L6.69949 13.103C6.97149 12.9297 7.35265 13.0037 7.54139 13.2557L9.65156 16.0736C10.0047 16.0256 10.3408 15.9981 10.6222 15.9981H15.354L14.8328 5.52671C14.8168 5.20563 14.9752 4.74283 15.189 4.49025L15.2269 4.4455C15.4396 4.19415 15.8764 3.99473 16.2038 4.00011L16.7121 4.00845C17.0389 4.01382 17.4222 4.25455 17.5667 4.5431L23.3028 15.9981L27.5923 15.9981C28.405 15.9981 29.658 16.2937 30.3602 16.6966C30.3602 16.6966 32 17.3179 32 18.5004C32 19.6829 30.3602 20.3034 30.3602 20.3034C29.6442 20.6888 28.398 21.0013 27.5923 21.0013H23.8038L17.5667 33.4569C17.4222 33.7454 17.0389 33.9862 16.7121 33.9915L16.2038 33.9999C15.8764 34.0053 15.4396 33.8059 15.2269 33.5545L15.189 33.5098C14.9752 33.2572 14.8168 32.7944 14.8328 32.4733L15.4038 21.0013Z" fill="white"/>
</mask>
<g mask="url(#mask0)">
<path d="M15.4038 21.0013H10.6222C10.3393 21.0013 10.0027 20.9748 9.64999 20.9279L7.54139 23.7436C7.35265 23.9957 6.97149 24.0697 6.69949 23.8963L6.78382 23.9501C6.51859 23.781 6.31723 23.3747 6.3492 23.0521L6.6464 20.053C5.90624 19.7103 5 19.1552 5 18.492C5 17.829 5.90553 17.2775 6.64553 16.9376L6.3492 13.9473C6.31723 13.6247 6.51859 13.2183 6.78382 13.0493L6.69949 13.103C6.97149 12.9297 7.35265 13.0037 7.54139 13.2557L9.65156 16.0736C10.0047 16.0256 10.3408 15.9981 10.6222 15.9981H15.354L14.8328 5.52671C14.8168 5.20563 14.9752 4.74283 15.189 4.49025L15.2269 4.4455C15.4396 4.19415 15.8764 3.99473 16.2038 4.00011L16.7121 4.00845C17.0389 4.01382 17.4222 4.25455 17.5667 4.5431L23.3028 15.9981L27.5923 15.9981C28.405 15.9981 29.658 16.2937 30.3602 16.6966C30.3602 16.6966 32 17.3179 32 18.5004C32 19.6829 30.3602 20.3034 30.3602 20.3034C29.6442 20.6888 28.398 21.0013 27.5923 21.0013H23.8038L17.5667 33.4569C17.4222 33.7454 17.0389 33.9862 16.7121 33.9915L16.2038 33.9999C15.8764 34.0053 15.4396 33.8059 15.2269 33.5545L15.189 33.5098C14.9752 33.2572 14.8168 32.7944 14.8328 32.4733L15.4038 21.0013Z" fill="white"/>
<path opacity="0.9" fill-rule="evenodd" clip-rule="evenodd" d="M23.2236 14.9974V15.9974L12.5846 15.9974V14.9974L23.2236 14.9974Z" fill="#EBECF2"/>
<path fill-rule="evenodd" clip-rule="evenodd" d="M17.643 34.0096C17.9637 34.0096 18.3381 33.7614 18.4738 33.4672L24.2236 21.0013H15.0037L14.4327 32.4733C14.4167 32.7944 14.5751 33.2572 14.7889 33.5098L14.8268 33.5545C15.0395 33.8059 15.4687 34.0096 15.7927 34.0096H17.643Z" fill="#DEE1E3"/>
<path opacity="0.4" fill-rule="evenodd" clip-rule="evenodd" d="M6.71235 20.2459C7.17955 20.4148 7.5289 20.5079 7.5289 20.5079C8.30034 20.7751 9.55629 20.9753 10.4242 20.9989L7.82509 23.7756C7.59779 24.0184 7.18391 24.0908 6.89487 23.9434L6.81577 23.903C6.53116 23.7579 6.32479 23.3747 6.36475 23.0521L6.71235 20.2459Z" fill="#DEE1E3"/>
<path fill-rule="evenodd" clip-rule="evenodd" d="M14.8726 23.6324L15.0229 21.0013H24.6647L23.9957 22.1651L14.8726 23.6324Z" fill="#C5C6CC"/>
<path fill-rule="evenodd" clip-rule="evenodd" d="M31.4871 21.0013L4.99207 21.0013C4.99207 21.0013 5.01755 19.3669 5.01755 18.047C5.01755 18.0311 5.01795 18.0152 5.01873 17.9994C5.88256 18.6839 7.74006 19.8232 10.0873 19.8232L28.4299 19.8232C30.468 19.8232 31.5022 18.74 31.9921 18.3049C31.8164 19.5223 31.4871 21.0013 31.4871 21.0013Z" fill="#DEE1E3"/>
</g>
</g>
<defs>
<filter id="filter0_d" x="2" y="2" width="35" height="38" filterUnits="userSpaceOnUse" color-interpolation-filters="sRGB">
<feFlood flood-opacity="0" result="BackgroundImageFix"/>
<feColorMatrix in="SourceAlpha" type="matrix" values="0 0 0 0 0 0 0 0 0 0 0 0 0 0 0 0 0 0 127 0"/>
<feOffset dx="1" dy="2"/>
<feGaussianBlur stdDeviation="2"/>
<feColorMatrix type="matrix" values="0 0 0 0 0 0 0 0 0 0 0 0 0 0 0 0 0 0 0.2 0"/>
<feBlend mode="normal" in2="BackgroundImageFix" result="effect1_dropShadow"/>
<feBlend mode="normal" in="SourceGraphic" in2="effect1_dropShadow" result="shape"/>
</filter>
<clipPath id="clip0">
<rect width="38" height="36" fill="white" transform="translate(36) rotate(90)"/>
</clipPath>
</defs>
</svg>
